<?xml version="1.0" standalone="no"?>
<!DOCTYPE svg PUBLIC "-//W3C//DTD SVG 20010904//EN"
 "http://www.w3.org/TR/2001/REC-SVG-20010904/DTD/svg10.dtd">
<svg version="1.0" xmlns="http://www.w3.org/2000/svg"
 width="700.000000pt" height="700.000000pt" viewBox="0 0 700.000000 700.000000"
 preserveAspectRatio="xMidYMid meet">
<metadata>
Created by potrace 1.14, written by Peter Selinger 2001-2017
</metadata>
<g transform="translate(0.000000,700.000000) scale(0.100000,-0.100000)"
fill="#000000" stroke="none">
<path d="M869 6993 c-1 -5 -2 -752 -3 -1660 l-1 -1653 42 0 43 0 0 1660 0
1660 -40 0 c-22 0 -41 -3 -41 -7z"/>
<path d="M1160 5341 l0 -1661 30 0 c17 0 30 -3 31 -7 0 -5 2 -60 4 -123 6
-174 18 -326 35 -430 5 -30 12 -77 15 -104 12 -100 65 -321 111 -469 96 -304
263 -640 531 -1069 59 -95 110 -177 112 -183 14 -37 28 -36 90 11 2 2 -53 95
-121 206 -298 483 -429 746 -528 1053 -51 162 -108 414 -126 561 -3 27 -7 60
-9 74 -15 114 -24 255 -24 378 l-1 102 -30 0 c-16 0 -31 3 -31 8 -1 4 -2 750
-3 1657 l-1 1650 -42 3 -43 3 0 -1660z"/>
<path d="M1499 6978 c0 -13 -1 -759 -1 -1658 l-1 -1635 41 -3 42 -3 0 43 c1
85 1 3233 1 3256 -1 19 -6 22 -41 22 -35 0 -40 -3 -41 -22z"/>
<path d="M1794 5343 l1 -1658 40 0 40 0 1 1658 1 1657 -42 0 -43 0 2 -1657z"/>
<path d="M2130 5340 l0 -1661 43 3 42 3 0 1655 0 1655 -42 3 -43 3 0 -1661z"/>
<path d="M2426 5263 c1 -956 4 -1781 8 -1833 3 -52 8 -124 11 -160 2 -36 7
-105 10 -155 3 -49 7 -111 10 -137 3 -27 7 -69 10 -95 19 -200 51 -441 75
-578 10 -60 22 -126 25 -145 3 -19 8 -42 10 -50 2 -8 7 -28 9 -45 11 -66 47
-228 81 -370 45 -188 107 -439 111 -443 8 -11 74 22 74 36 0 9 -22 104 -50
212 -47 185 -89 368 -125 545 -23 111 -23 108 -41 210 -15 80 -55 358 -64 440
-6 55 -13 114 -15 130 -2 17 -7 64 -10 105 -3 41 -8 89 -10 105 -2 17 -7 80
-10 140 -4 61 -9 135 -12 165 -3 30 -7 782 -10 1670 l-4 1615 52 -83 c28 -46
85 -118 126 -160 l75 -77 1 -1312 0 -1313 32 0 33 0 2 -107 c1 -60 3 -142 5
-183 2 -41 6 -165 9 -275 4 -110 8 -236 11 -280 2 -44 7 -147 10 -230 4 -82 8
-179 10 -215 10 -166 22 -345 30 -430 2 -25 7 -81 10 -125 3 -44 7 -91 10
-105 2 -14 7 -59 10 -100 3 -41 8 -88 10 -105 2 -16 7 -64 11 -105 4 -41 9
-78 10 -82 1 -5 2 -24 3 -44 1 -35 1 -35 44 -32 34 2 42 7 40 21 -6 80 -15
173 -18 186 -1 9 -6 54 -10 101 -3 47 -8 99 -10 115 -5 40 -14 137 -20 210 -3
33 -7 89 -10 125 -7 89 -11 149 -30 470 -4 68 -7 134 -20 465 -2 61 -7 209
-11 330 -4 121 -8 243 -9 270 -2 28 -3 68 -4 91 -1 39 -2 40 -31 36 -21 -3
-30 0 -31 9 -4 102 -2 2549 2 2549 4 0 40 -15 80 -34 41 -18 86 -38 101 -44
l27 -11 0 -1223 c0 -673 0 -1229 0 -1235 1 -8 16 -13 44 -13 l42 0 0 1227 0
1228 30 -4 c52 -6 128 -7 173 0 27 4 42 2 43 -5 1 -6 3 -555 4 -1221 1 -665 3
-1213 4 -1217 0 -5 19 -8 41 -8 l40 0 0 1240 c0 1042 2 1240 14 1240 20 0 115
40 159 67 l37 23 0 -1285 0 -1286 -40 4 c-31 3 -40 1 -41 -12 -3 -36 -7 -126
-13 -316 -4 -110 -8 -245 -11 -300 -2 -55 -7 -176 -10 -270 -3 -93 -8 -204
-10 -245 -2 -41 -7 -122 -10 -180 -3 -58 -7 -127 -10 -155 -2 -27 -7 -93 -10
-145 -4 -52 -8 -111 -10 -130 -2 -19 -6 -69 -9 -110 -12 -138 -27 -287 -45
-435 -13 -116 -12 -120 35 -123 28 -2 41 1 41 10 0 24 13 153 23 228 5 41 12
109 16 150 3 41 7 89 9 105 3 29 9 108 21 250 3 39 7 90 9 115 2 25 7 97 10
160 4 63 8 140 10 170 2 30 6 125 10 210 3 85 8 193 10 240 2 47 7 182 11 300
4 118 8 249 9 290 2 41 3 101 4 132 l1 57 43 3 42 3 0 1313 0 1314 30 27 c70
62 147 167 201 270 l24 46 -4 -1605 c-2 -883 -6 -1627 -9 -1655 -3 -27 -8 -99
-11 -160 -4 -60 -9 -126 -11 -145 -2 -19 -6 -66 -10 -105 -3 -38 -8 -81 -10
-95 -2 -14 -7 -52 -10 -85 -8 -80 -13 -122 -31 -235 -8 -52 -17 -111 -20 -130
-7 -44 -10 -65 -19 -115 -4 -22 -9 -47 -10 -55 -2 -8 -6 -26 -9 -40 -3 -14
-19 -92 -36 -175 -25 -120 -165 -699 -185 -766 -4 -11 5 -19 32 -27 21 -6 41
-8 44 -4 16 17 190 747 234 982 7 37 35 200 41 235 2 17 6 41 9 55 2 14 7 45
10 70 3 25 7 54 9 65 4 18 18 140 21 175 5 58 17 179 21 200 2 14 6 72 10 130
3 58 7 121 9 140 14 147 18 566 18 2020 l0 1665 -54 0 -54 0 -7 -48 c-17 -121
-82 -278 -154 -373 -118 -154 -238 -241 -401 -291 -89 -27 -275 -24 -373 6
-168 51 -287 132 -381 258 -70 93 -132 248 -146 361 -3 26 -7 54 -9 62 -1 8
-3 18 -3 23 -1 4 -25 7 -54 7 l-52 0 1 -1737z"/>
<path d="M4324 5341 l0 -1659 43 0 43 0 0 1659 0 1659 -43 0 -43 0 0 -1659z"/>
<path d="M4660 5339 l0 -1660 43 3 42 3 0 1658 1 1657 -43 0 -43 0 0 -1661z"/>
<path d="M4959 6993 c-3 -25 -4 -3290 -1 -3300 3 -8 21 -13 43 -13 l39 0 0 60
c0 33 1 746 1 1585 0 839 -1 1559 -1 1600 l0 75 -40 0 c-22 0 -40 -3 -41 -7z"/>
<path d="M5295 5343 l0 -1658 43 -3 42 -3 0 1660 0 1661 -43 0 -43 0 1 -1657z"/>
<path d="M5590 5340 l0 -1660 40 0 c22 0 40 3 41 8 3 24 4 3289 1 3300 -2 7
-21 12 -43 12 l-39 0 0 -1660z"/>
<path d="M37 3682 l-38 -3 6 -57 c9 -80 44 -299 57 -347 5 -22 12 -48 14 -59
7 -39 56 -204 84 -283 62 -175 152 -370 255 -553 52 -92 218 -346 258 -395 14
-16 62 -76 107 -133 134 -167 351 -386 540 -544 l45 -38 22 28 c12 15 22 32
23 38 0 6 -42 47 -92 90 -163 138 -352 334 -489 504 -349 434 -585 909 -687
1385 -30 138 -37 178 -49 285 -8 76 -9 79 -14 82 -2 2 -21 2 -42 0z"/>
<path d="M417 3682 l-39 -3 7 -57 c13 -121 17 -151 41 -274 79 -408 267 -845
553 -1283 107 -164 241 -345 490 -660 52 -66 96 -122 97 -124 5 -5 63 43 63
53 1 4 -50 72 -111 150 -510 641 -761 1061 -918 1537 -28 84 -76 261 -86 314
-21 119 -36 211 -40 265 -3 36 -9 70 -12 75 -4 6 -24 9 -45 7z"/>
<path d="M792 3682 l-34 -3 6 -98 c4 -53 8 -106 10 -116 2 -11 7 -45 10 -76 4
-31 8 -65 10 -75 2 -11 7 -39 11 -64 4 -25 20 -99 35 -165 81 -343 218 -657
448 -1030 51 -81 496 -750 511 -767 3 -4 21 5 39 20 l33 27 -147 220 c-406
606 -447 671 -559 895 -197 393 -302 784 -319 1192 -2 35 -14 44 -54 40z"/>
<path d="M1623 3682 c-21 -3 -21 -6 -18 -130 17 -504 100 -906 283 -1362 62
-155 113 -268 273 -608 27 -56 67 -146 90 -200 24 -53 46 -101 49 -105 4 -5
24 -2 44 7 l36 15 -19 48 c-21 53 -103 234 -176 388 -106 224 -130 277 -192
425 -123 294 -222 626 -248 830 -3 25 -8 52 -10 60 -2 8 -7 40 -10 70 -3 30
-8 62 -10 70 -2 8 -7 60 -11 115 -4 55 -8 111 -9 125 -2 14 -3 75 -4 136 -1
108 -2 112 -23 116 -13 2 -33 2 -45 0z"/>
<path d="M2029 3680 c-1 -13 3 -200 6 -235 2 -22 6 -83 9 -135 6 -92 23 -273
31 -335 2 -16 6 -52 10 -80 3 -27 11 -81 17 -120 6 -38 12 -77 13 -85 19 -168
121 -619 190 -841 69 -222 200 -579 211 -579 3 0 20 7 39 15 l35 14 -26 68
c-160 421 -236 674 -314 1048 -31 149 -62 334 -76 453 -3 26 -7 58 -9 72 -17
110 -37 352 -50 610 -4 69 -8 127 -11 129 -6 6 -74 7 -75 1z"/>
<path d="M3233 3676 c-5 -7 -8 -2307 -4 -2398 1 -14 10 -18 41 -18 l40 0 0
1209 0 1209 -36 4 c-19 2 -38 0 -41 -6z"/>
<path d="M4413 3677 c-3 -5 -7 -37 -9 -71 -7 -153 -15 -294 -19 -326 -2 -19
-6 -71 -10 -115 -3 -44 -8 -98 -11 -120 -3 -22 -7 -56 -8 -75 -3 -33 -12 -99
-22 -161 -2 -15 -6 -47 -9 -70 -5 -39 -9 -66 -30 -184 -2 -16 -7 -41 -10 -55
-3 -14 -8 -38 -11 -55 -55 -302 -176 -705 -339 -1127 -5 -12 2 -21 24 -32 16
-9 34 -16 39 -16 5 0 37 72 70 160 159 416 284 890 338 1280 2 19 7 44 9 55 2
11 7 47 11 79 3 33 8 69 10 80 2 12 6 50 9 86 3 36 8 76 10 90 2 14 7 59 10
100 3 41 8 98 10 125 2 28 7 118 10 201 l7 152 -37 4 c-20 2 -39 0 -42 -5z"/>
<path d="M4834 3675 c-1 -5 -5 -73 -9 -150 -8 -210 -26 -389 -50 -520 -76
-411 -181 -719 -403 -1185 -56 -119 -75 -159 -144 -310 -32 -69 -88 -200 -88
-206 0 -5 58 -34 68 -34 5 0 22 30 37 68 16 37 50 112 76 167 257 550 313 680
387 895 36 105 78 245 87 288 2 9 10 44 18 77 55 214 90 505 101 832 l2 81
-39 4 c-22 2 -41 -1 -43 -7z"/>
<path d="M5228 3682 c-15 -3 -18 -15 -19 -70 -6 -420 -71 -798 -196 -1147 -14
-38 -31 -83 -39 -100 -7 -16 -27 -64 -45 -105 -86 -201 -193 -397 -401 -734
-71 -115 -127 -214 -125 -220 3 -6 18 -19 35 -28 l29 -18 72 118 c40 64 90
146 113 182 247 398 415 756 507 1085 29 101 74 305 86 390 4 22 8 51 10 65 5
25 12 90 20 165 6 56 14 213 17 319 3 88 3 90 -22 96 -14 3 -33 4 -42 2z"/>
<path d="M5676 3667 c-3 -12 -7 -59 -11 -104 -3 -46 -10 -118 -16 -160 -6 -43
-12 -87 -14 -98 -24 -184 -103 -454 -198 -675 -109 -255 -207 -422 -538 -918
-137 -204 -249 -375 -249 -380 0 -4 15 -17 33 -28 l33 -21 251 376 c318 475
447 694 539 914 14 34 32 76 39 92 55 121 141 427 170 600 23 143 23 144 29
210 19 202 19 205 -6 206 -13 0 -31 2 -41 4 -11 2 -19 -4 -21 -18z"/>
<path d="M6055 3680 c-2 -3 -6 -32 -9 -65 -15 -142 -18 -158 -52 -314 -90
-403 -270 -801 -557 -1231 -86 -128 -284 -394 -440 -590 l-116 -145 32 -27
c17 -14 35 -24 38 -22 11 6 278 348 386 494 380 512 606 961 727 1445 14 55
30 129 35 165 6 36 13 75 16 88 2 13 7 51 10 85 3 34 8 74 11 88 5 25 2 27
-36 31 -23 2 -43 1 -45 -2z"/>
<path d="M6435 3678 c-2 -7 -9 -56 -15 -108 -10 -82 -20 -137 -46 -270 -55
-274 -204 -638 -387 -945 -201 -337 -515 -704 -812 -950 -33 -28 -63 -54 -67
-59 -3 -5 5 -24 19 -43 l25 -33 92 77 c87 74 328 310 391 383 109 127 142 168
222 277 194 261 373 585 477 863 66 177 133 423 151 553 3 27 8 59 11 70 2 12
7 47 10 77 3 30 7 65 10 78 5 23 1 25 -49 36 -18 4 -29 2 -32 -6z"/>
</g>
</svg>
